<svg width="716" height="716" viewBox="0 0 716 716" fill="none" xmlns="http://www.w3.org/2000/svg">
<g clip-path="url(#clip0)">
<path d="M408.147 486.065C385.587 490.592 350.842 517.399 350.842 517.399C350.842 517.399 385.405 525.264 413.176 519.964C440.946 514.664 485.293 484.071 485.293 484.071C485.293 484.071 430.708 481.537 408.147 486.065Z" fill="#159800" stroke="black" stroke-width="5"/>
<path d="M274.79 467.596C252.498 461.891 209.565 470.977 209.565 470.977C209.565 470.977 237.298 493.055 264.619 500.323C291.94 507.591 345.168 499.257 345.168 499.257C345.168 499.257 297.083 473.301 274.79 467.596Z" fill="#159800" stroke="black" stroke-width="5"/>
<path d="M361.88 344.899L356.354 344.899C356.354 344.899 340.332 439.377 345.856 509.544C351.381 579.711 364.642 596.049 366.852 595.734C369.062 595.418 358.012 582.474 353.592 509.544C349.172 436.614 361.88 344.899 361.88 344.899Z" fill="#159800" stroke="black" stroke-width="4"/>
<path d="M362.16 256.013C362.16 256.013 365.743 130.624 426.16 142.476C484.899 162.154 390.324 270.007 390.324 270.007C390.324 270.007 485.366 182.006 515.222 242.439C533.776 305.674 405.663 301.245 405.663 301.245C405.663 301.245 537.814 311.799 520.748 375.261C497.227 432.124 395.762 335.687 395.762 335.687C395.762 335.687 483.206 439.579 431.613 456.265C363.112 478.419 365.653 349.855 365.653 349.855C365.653 349.855 352.878 474.068 301.415 463.032C238.039 436.97 311.107 355.672 325.517 340.506C311.459 354.734 238.636 424.464 206.731 376.08C178.687 316.002 313.723 302.79 313.723 302.79C313.723 302.79 177.291 293.145 197.037 237.737C226.926 184.945 325.532 273.634 325.532 273.634C325.532 273.634 223.92 174.005 294.692 153.699C356.129 143.167 362.16 256.013 362.16 256.013Z" fill="white"/>
<path d="M362.16 256.013C362.16 256.013 365.743 130.624 426.16 142.476C484.899 162.154 390.324 270.007 390.324 270.007C390.324 270.007 485.366 182.006 515.222 242.439C533.776 305.674 405.663 301.245 405.663 301.245C405.663 301.245 537.814 311.799 520.748 375.261C497.227 432.124 395.762 335.687 395.762 335.687C395.762 335.687 483.206 439.579 431.613 456.265C363.112 478.419 365.653 349.855 365.653 349.855C365.653 349.855 352.878 474.068 301.415 463.032C231.408 434.243 327.89 338.056 327.89 338.056C327.89 338.056 242.128 429.759 206.731 376.08C178.687 316.002 313.723 302.79 313.723 302.79C313.723 302.79 177.291 293.145 197.037 237.737C226.926 184.945 325.532 273.634 325.532 273.634C325.532 273.634 223.92 174.005 294.692 153.699C356.129 143.167 362.16 256.013 362.16 256.013Z" stroke="black" stroke-width="10"/>
<path d="M316.409 322.01C320.223 340.729 344.791 356.975 367.151 349.601C387.051 343.038 409.738 326.967 403.956 298.588C398.173 270.209 377.587 256.29 350.045 265.648C313.825 277.953 312.595 303.29 316.409 322.01Z" fill="#F5BD0A" stroke="black" stroke-width="10"/>
<path d="M136.14 630.8C134.78 630.8 133.64 630.24 132.72 629.12C131.84 628 131.4 626.76 131.4 625.4C131.4 623.84 131.7 622.12 132.3 620.24C132.94 618.32 133.72 616.56 134.64 614.96C135.6 613.32 136.52 612.12 137.4 611.36H141.18C140.42 612.76 139.78 614.42 139.26 616.34C138.78 618.22 138.5 620.08 138.42 621.92C139.06 622.28 139.62 622.86 140.1 623.66C140.62 624.46 140.88 625.24 140.88 626C140.88 627.28 140.42 628.4 139.5 629.36C138.62 630.32 137.5 630.8 136.14 630.8ZM149.88 630.8C148.52 630.8 147.38 630.24 146.46 629.12C145.58 628 145.14 626.76 145.14 625.4C145.14 623.84 145.44 622.12 146.04 620.24C146.68 618.32 147.46 616.56 148.38 614.96C149.34 613.32 150.26 612.12 151.14 611.36H154.92C154.16 612.76 153.52 614.42 153 616.34C152.52 618.22 152.24 620.08 152.16 621.92C152.8 622.28 153.36 622.86 153.84 623.66C154.36 624.46 154.62 625.24 154.62 626C154.62 627.28 154.16 628.4 153.24 629.36C152.36 630.32 151.24 630.8 149.88 630.8ZM179.937 662.6C177.537 662.6 175.157 662.18 172.797 661.34C170.437 660.5 168.737 659.56 167.697 658.52L170.877 652.82C171.717 653.58 173.017 654.38 174.777 655.22C176.577 656.02 178.297 656.42 179.937 656.42C182.057 656.42 183.777 655.92 185.097 654.92C186.457 653.92 187.137 652.54 187.137 650.78C187.137 649.42 186.777 648.24 186.057 647.24C185.337 646.24 184.457 645.42 183.417 644.78C182.377 644.1 180.897 643.28 178.977 642.32C176.697 641.2 175.137 640.36 174.297 639.8C170.417 637.2 168.477 633.6 168.477 629C168.477 625.2 169.737 622.3 172.257 620.3C174.777 618.26 177.957 617.24 181.797 617.24C185.917 617.24 189.417 618.42 192.297 620.78L189.117 626.24C188.357 625.44 187.277 624.76 185.877 624.2C184.517 623.6 183.057 623.3 181.497 623.3C179.497 623.3 177.917 623.76 176.757 624.68C175.637 625.56 175.077 626.88 175.077 628.64C175.077 629.88 175.437 631 176.157 632C176.877 632.96 177.777 633.8 178.857 634.52C179.977 635.24 181.477 636.12 183.357 637.16C185.157 638.16 186.537 638.96 187.497 639.56C188.457 640.12 189.357 640.8 190.197 641.6C191.357 642.64 192.297 643.88 193.017 645.32C193.737 646.76 194.097 648.34 194.097 650.06C194.097 652.74 193.477 655.02 192.237 656.9C191.037 658.78 189.357 660.2 187.197 661.16C185.077 662.12 182.657 662.6 179.937 662.6ZM213.904 623.78H202.624V617.9H231.964V623.78H220.564V662H213.904V623.78ZM262.312 662.6C258.312 662.6 254.612 661.68 251.212 659.84C247.852 657.96 245.172 655.3 243.172 651.86C241.172 648.42 240.172 644.42 240.172 639.86C240.172 635.26 241.172 631.26 243.172 627.86C245.172 624.42 247.852 621.78 251.212 619.94C254.612 618.1 258.312 617.18 262.312 617.18C266.312 617.18 269.992 618.1 273.352 619.94C276.752 621.78 279.452 624.42 281.452 627.86C283.452 631.26 284.452 635.26 284.452 639.86C284.452 644.42 283.452 648.42 281.452 651.86C279.452 655.3 276.752 657.96 273.352 659.84C269.992 661.68 266.312 662.6 262.312 662.6ZM262.312 656.54C265.072 656.54 267.592 655.9 269.872 654.62C272.152 653.3 273.952 651.4 275.272 648.92C276.632 646.4 277.312 643.4 277.312 639.92C277.312 636.4 276.632 633.4 275.272 630.92C273.952 628.4 272.152 626.5 269.872 625.22C267.632 623.94 265.112 623.3 262.312 623.3C259.512 623.3 256.972 623.94 254.692 625.22C252.412 626.5 250.612 628.4 249.292 630.92C247.972 633.4 247.312 636.4 247.312 639.92C247.312 643.4 247.992 646.4 249.352 648.92C250.712 651.4 252.532 653.3 254.812 654.62C257.132 655.9 259.632 656.54 262.312 656.54ZM308.153 642.26L304.553 646.7V662H297.953V617.9H304.553V637.58L319.673 617.9H327.713L312.533 637.28L329.873 662H321.653L308.153 642.26ZM361.657 662L352.777 645.32C350.937 645.4 349.297 645.44 347.857 645.44H346.177V662H339.637V617.9H349.657C354.737 617.9 358.917 618.96 362.197 621.08C365.477 623.16 367.117 626.56 367.117 631.28C367.117 634.24 366.417 636.8 365.017 638.96C363.657 641.08 361.617 642.72 358.897 643.88L369.397 662H361.657ZM350.437 639.98C354.357 639.98 357.037 639.14 358.477 637.46C359.957 635.74 360.697 633.7 360.697 631.34C360.697 626.1 357.197 623.48 350.197 623.48H346.177V639.98H350.437ZM402.538 662.6C398.538 662.6 394.838 661.68 391.438 659.84C388.078 657.96 385.398 655.3 383.398 651.86C381.398 648.42 380.398 644.42 380.398 639.86C380.398 635.26 381.398 631.26 383.398 627.86C385.398 624.42 388.078 621.78 391.438 619.94C394.838 618.1 398.538 617.18 402.538 617.18C406.538 617.18 410.218 618.1 413.578 619.94C416.978 621.78 419.678 624.42 421.678 627.86C423.678 631.26 424.678 635.26 424.678 639.86C424.678 644.42 423.678 648.42 421.678 651.86C419.678 655.3 416.978 657.96 413.578 659.84C410.218 661.68 406.538 662.6 402.538 662.6ZM402.538 656.54C405.298 656.54 407.818 655.9 410.098 654.62C412.378 653.3 414.178 651.4 415.498 648.92C416.858 646.4 417.538 643.4 417.538 639.92C417.538 636.4 416.858 633.4 415.498 630.92C414.178 628.4 412.378 626.5 410.098 625.22C407.858 623.94 405.338 623.3 402.538 623.3C399.738 623.3 397.198 623.94 394.918 625.22C392.638 626.5 390.838 628.4 389.518 630.92C388.198 633.4 387.538 636.4 387.538 639.92C387.538 643.4 388.218 646.4 389.578 648.92C390.938 651.4 392.758 653.3 395.038 654.62C397.358 655.9 399.858 656.54 402.538 656.54ZM444.178 623.78H432.898V617.9H462.238V623.78H450.838V662H444.178V623.78ZM484.907 642.26L481.307 646.7V662H474.707V617.9H481.307V637.58L496.427 617.9H504.467L489.287 637.28L506.627 662H498.407L484.907 642.26ZM532.531 617.84L553.771 662H546.031L542.251 653.36H522.031L518.251 662H510.751L531.871 617.84H532.531ZM529.531 636.62L524.731 647.3H539.611L534.871 636.68L532.291 630.62H532.171L529.531 636.62ZM568.025 611.36C569.385 611.36 570.505 611.92 571.385 613.04C572.305 614.16 572.765 615.4 572.765 616.76C572.765 618.32 572.445 620.06 571.805 621.98C571.205 623.86 570.425 625.62 569.465 627.26C568.545 628.86 567.645 630.04 566.765 630.8H562.985C563.745 629.4 564.365 627.76 564.845 625.88C565.365 623.96 565.665 622.08 565.745 620.24C565.105 619.88 564.525 619.3 564.005 618.5C563.525 617.7 563.285 616.92 563.285 616.16C563.285 614.88 563.725 613.76 564.605 612.8C565.525 611.84 566.665 611.36 568.025 611.36ZM581.765 611.36C583.125 611.36 584.245 611.92 585.125 613.04C586.045 614.16 586.505 615.4 586.505 616.76C586.505 618.32 586.185 620.06 585.545 621.98C584.945 623.86 584.165 625.62 583.205 627.26C582.285 628.86 581.385 630.04 580.505 630.8H576.725C577.485 629.4 578.105 627.76 578.585 625.88C579.105 623.96 579.405 622.08 579.485 620.24C578.845 619.88 578.265 619.3 577.745 618.5C577.265 617.7 577.025 616.92 577.025 616.16C577.025 614.88 577.465 613.76 578.345 612.8C579.265 611.84 580.405 611.36 581.765 611.36Z" fill="white"/>
<path d="M66.8998 546.728L70.2797 544.9L87.3256 536.489L89.7044 541.31L58.0232 556.943L57.7258 556.34L69.2982 527.507L65.7673 529.463L48.6784 537.895L46.2996 533.074L77.9378 517.463L78.2564 518.109L66.8998 546.728Z" fill="white"/>
<path d="M34.9743 505.484L33.2151 500.404L66.5527 488.859L68.3119 493.939L34.9743 505.484Z" fill="white"/>
<path d="M26.1681 478.106L22.5938 463.069L27.1703 461.981L29.5125 471.834L38.9923 469.581L37.1053 461.642L41.7752 460.532L43.6622 468.471L54.6365 465.862L51.928 454.468L56.5511 453.369L60.4918 469.947L26.1681 478.106Z" fill="white"/>
<path d="M17.8053 438.425L16.9481 430.696C16.4649 426.339 17.0504 423.054 18.7047 420.842C20.3236 418.602 22.7551 417.302 25.9992 416.942C29.7522 416.526 32.7523 417.304 34.9994 419.277C37.2465 421.249 38.6099 424.398 39.0896 428.723L39.296 430.584L52.2724 429.145L52.8703 434.536L17.8053 438.425ZM34.3507 429.104C34.0403 426.305 33.2032 424.418 31.8393 423.442C30.4755 422.467 28.9189 422.076 27.1696 422.27C25.2931 422.478 23.8265 423.188 22.7696 424.4C21.7127 425.612 21.3254 427.49 21.6076 430.034L21.8827 432.515L34.5729 431.108L34.3507 429.104Z" fill="white"/>
<path d="M50.0743 382.483C49.9365 386.897 48.5093 390.054 45.7926 391.954C43.076 393.854 39.1909 394.725 34.1374 394.567L13.9392 393.937L14.107 388.563L34.4011 389.197C38.1433 389.314 40.8475 388.838 42.5136 387.769C44.1478 386.7 45.0048 384.886 45.0847 382.327C45.1646 379.768 44.4379 377.921 42.9046 376.784C41.3404 375.615 38.6552 374.971 34.849 374.852L14.5549 374.218L14.7242 368.797L34.9223 369.427C39.9439 369.584 43.7651 370.76 46.3858 372.955C48.9756 375.117 50.2051 378.293 50.0743 382.483Z" fill="white"/>
<path d="M17.1818 340.501L18.8178 331.675C19.7394 326.704 21.1856 323.555 23.1565 322.228C25.1274 320.901 27.2927 320.456 29.6525 320.893C31.2257 321.185 32.6561 321.808 33.9437 322.763C35.1998 323.712 36.0339 325.005 36.4462 326.644C37.4266 324.515 38.7211 323.063 40.3294 322.287C41.9436 321.479 43.7103 321.254 45.6296 321.609C47.6433 321.983 49.347 322.624 50.7406 323.533C52.1342 324.443 53.1507 325.982 53.7901 328.15C54.4295 330.319 54.4021 333.276 53.7081 337.02L51.8708 346.931L17.1818 340.501ZM33.7004 333.555C34.1146 331.321 33.8742 329.633 32.9794 328.491C32.0532 327.343 30.7562 326.614 29.0887 326.305C26.0996 325.751 24.2084 327.614 23.4152 331.893L22.6278 336.14L32.8693 338.039L33.7004 333.555ZM49.4029 335.49C49.9336 332.627 49.7231 330.602 48.7712 329.417C47.7937 328.194 46.4239 327.42 44.662 327.093C42.9944 326.784 41.5994 327.111 40.4769 328.075C39.3545 329.038 38.5804 330.668 38.1546 332.965L37.0697 338.818L48.3967 340.917L49.4029 335.49Z" fill="white"/>
<path d="M28.0651 290.801L29.7325 285.64L58.7366 295.009L61.85 285.372L66.4176 286.847L61.6369 301.646L28.0651 290.801Z" fill="white"/>
<path d="M40.6178 255.492L42.7523 250.558L75.1323 264.566L72.9977 269.5L40.6178 255.492Z" fill="white"/>
<path d="M91.6457 232.579C89.8108 235.732 87.5121 238.06 84.7495 239.562C82.0031 241.037 79.1003 241.699 76.0412 241.548C72.9545 241.38 69.9868 240.468 67.138 238.81C64.1234 237.055 61.805 234.836 60.183 232.152C58.577 229.44 57.8023 226.509 57.859 223.358C57.888 220.191 58.7797 217.1 60.5341 214.085C61.3227 212.73 62.2072 211.56 63.1874 210.575C64.1561 209.547 65.0594 208.758 65.8973 208.209C66.7075 207.644 67.3095 207.309 67.7033 207.205L70.6689 211.653C68.1936 212.47 66.1672 214.235 64.5899 216.945C63.4793 218.853 62.9435 220.856 62.9825 222.952C63.0215 225.048 63.6547 227.045 64.8821 228.944C66.1094 230.843 67.8709 232.461 70.1665 233.797C72.2684 235.02 74.4021 235.744 76.5676 235.967C78.7491 236.163 80.7803 235.79 82.6613 234.848C84.5422 233.906 86.0943 232.385 87.3175 230.283C88.7339 227.849 89.4106 225.096 89.3475 222.023L94.0855 222.947C94.2845 223.878 94.172 225.312 93.7478 227.249C93.3121 229.143 92.6114 230.92 91.6457 232.579Z" fill="white"/>
<path d="M93.2885 175.38L83.6856 187.429L80.082 184.557L94.9501 165.901L108.002 198.584L118.413 185.521L122.091 188.452L106.266 208.31L93.2885 175.38Z" fill="white"/>
<path d="M123.919 152.448L126.631 155.171L139.529 169.133L135.58 172.781L111.607 146.832L112.101 146.376L143.032 149.299L140.155 146.467L127.223 132.47L131.172 128.822L155.113 154.736L154.584 155.225L123.919 152.448Z" fill="white"/>
<path d="M154.349 110.024L167.069 101.244L169.741 105.115L161.406 110.869L166.942 118.888L173.657 114.253L176.384 118.203L169.668 122.838L176.076 132.121L185.715 125.468L188.414 129.379L174.391 139.059L154.349 110.024Z" fill="white"/>
<path d="M209.956 76.5048L217.087 73.4022C221.106 71.6531 224.417 71.2419 227.019 72.1687C229.638 73.0535 231.598 74.9923 232.9 77.9852C234.407 81.4477 234.55 84.5437 233.33 87.2732C232.11 90.0028 229.504 92.2357 225.514 93.9722L223.797 94.7191L229.006 106.691L224.033 108.855L209.956 76.5048ZM223.75 89.5573C226.332 88.4338 227.887 87.0764 228.416 85.4851C228.945 83.8939 228.859 82.2914 228.157 80.6775C227.403 78.9463 226.292 77.7549 224.822 77.1034C223.352 76.4518 221.443 76.6367 219.095 77.6581L216.807 78.654L221.901 90.3617L223.75 89.5573Z" fill="white"/>
<path d="M278.06 88.8859L267.622 77.9506C266.222 78.409 264.967 78.7934 263.858 79.1039L262.564 79.4662L266.135 92.2239L261.096 93.6341L251.587 59.6599L259.306 57.4992C263.22 56.4038 266.668 56.3191 269.653 57.245C272.628 58.1402 274.625 60.4058 275.642 64.0421C276.281 66.3225 276.293 68.4456 275.681 70.4115C275.09 72.338 273.872 74.0413 272.027 75.5215L284.023 87.2169L278.06 88.8859ZM264.668 74.3413C267.688 73.496 269.572 72.2709 270.319 70.6662C271.088 69.022 271.218 67.2908 270.709 65.4727C269.579 61.4358 266.318 60.1721 260.925 61.6816L257.828 62.5484L261.386 75.2599L264.668 74.3413Z" fill="white"/>
<path d="M315.029 50.2727L299.754 52.2892L299.151 47.7209L322.802 44.5987L309.529 77.1921L326.089 75.006L326.705 79.6695L301.531 82.9927L315.029 50.2727Z" fill="white"/>
<path d="M346.955 42.8259L362.411 42.7615L362.431 47.4655L352.303 47.5077L352.344 57.2516L360.503 57.2176L360.523 62.0175L352.364 62.0515L352.411 73.3314L364.122 73.2826L364.142 78.0346L347.102 78.1056L346.955 42.8259Z" fill="white"/>
<path d="M388.205 43.5326L396.623 44.6796C403.662 45.6387 408.35 47.9729 410.686 51.6823C413.055 55.396 413.926 59.5517 413.299 64.1492C412.863 67.3516 411.856 70.2341 410.28 72.7968C408.708 75.3277 406.41 77.2592 403.387 78.5912C400.395 79.9275 396.648 80.289 392.145 79.6755L383.442 78.4896L388.205 43.5326ZM393.358 75.0448C397.733 75.6409 401.072 74.8364 403.375 72.6311C405.714 70.3984 407.14 67.3955 407.655 63.6223C408.156 59.9443 407.565 56.8119 405.883 54.2251C404.201 51.6384 401.188 50.049 396.844 49.4572L392.896 48.9193L389.41 74.5069L393.358 75.0448Z" fill="white"/>
<path d="M440.656 89.4046C438.811 88.8717 437.075 88.0205 435.448 86.8508C433.821 85.6812 432.723 84.5813 432.154 83.5511L435.864 79.8763C436.341 80.647 437.163 81.5505 438.329 82.5869C439.534 83.6014 440.768 84.2907 442.028 84.6549C443.657 85.1256 445.09 85.1233 446.327 84.6478C447.594 84.1812 448.423 83.2716 448.814 81.9189C449.116 80.8737 449.101 79.8868 448.77 78.9584C448.439 78.0299 447.944 77.2043 447.287 76.4815C446.639 75.7279 445.684 74.7691 444.421 73.6049C442.917 72.2379 441.905 71.2459 441.384 70.629C438.979 67.7692 438.287 64.5715 439.309 61.0361C440.153 58.1156 441.765 56.1665 444.146 55.1889C446.535 54.1806 449.206 54.1028 452.157 54.9554C455.324 55.8703 457.752 57.5543 459.441 60.0076L455.785 63.4979C455.378 62.7143 454.699 61.9519 453.748 61.2106C452.836 60.4475 451.78 59.8927 450.581 59.5463C449.044 59.1022 447.728 59.105 446.632 59.5545C445.576 59.9821 444.852 60.8723 444.461 62.225C444.186 63.178 444.214 64.1187 444.545 65.0471C444.885 65.9448 445.391 66.7903 446.061 67.5835C446.762 68.3855 447.719 69.3949 448.933 70.6117C450.095 71.7799 450.978 72.7012 451.582 73.3755C452.196 74.0191 452.736 74.7415 453.204 75.5429C453.865 76.5998 454.312 77.7615 454.546 79.0282C454.779 80.2948 454.705 81.589 454.323 82.911C453.728 84.9707 452.745 86.5854 451.375 87.755C450.035 88.9334 448.429 89.6518 446.555 89.91C444.713 90.177 442.746 90.0086 440.656 89.4046Z" fill="white"/>
<path d="M496.65 76.3426L482.547 70.1362L484.404 65.9185L506.239 75.5279L477.974 96.4951L493.263 103.224L491.369 107.529L468.128 97.301L496.65 76.3426Z" fill="white"/>
<path d="M525.046 107.572L520.728 109.077L514.287 119.485L509.797 116.706L528.363 86.7063L532.852 89.4848L524.567 102.873L543.138 95.8501L548.608 99.2349L530.122 106.028L531.511 130.144L525.92 126.684L525.046 107.572Z" fill="white"/>
<path d="M558.819 151.486C556.411 149.379 554.668 146.877 553.59 143.978C552.557 141.076 552.345 138.063 552.952 134.938C553.56 131.813 555.065 128.878 557.467 126.132C559.89 123.363 562.599 121.481 565.595 120.487C568.611 119.47 571.615 119.292 574.607 119.954C577.624 120.637 580.336 122.032 582.745 124.139C585.153 126.246 586.884 128.738 587.938 131.616C589.016 134.515 589.251 137.527 588.643 140.652C588.056 143.752 586.551 146.687 584.128 149.457C581.726 152.203 579.017 154.084 576.001 155.102C572.985 156.12 569.958 156.299 566.92 155.64C563.928 154.978 561.228 153.594 558.819 151.486ZM562.011 147.838C563.673 149.292 565.528 150.234 567.575 150.664C569.643 151.07 571.727 150.874 573.829 150.076C575.975 149.276 577.965 147.827 579.798 145.732C581.652 143.613 582.823 141.448 583.31 139.239C583.843 137.026 583.76 134.934 583.061 132.962C582.387 131.011 581.207 129.299 579.521 127.824C577.835 126.349 575.968 125.396 573.921 124.966C571.874 124.536 569.79 124.732 567.668 125.553C565.566 126.351 563.589 127.81 561.735 129.929C559.901 132.025 558.731 134.189 558.222 136.423C557.735 138.633 557.83 140.735 558.507 142.731C559.23 144.724 560.398 146.426 562.011 147.838Z" fill="white"/>
<path d="M616.006 157.136L619.517 161.27L596.286 181.002L602.843 188.721L599.184 191.828L589.116 179.975L616.006 157.136Z" fill="white"/>
<path d="M639.538 186.324L648.158 199.153L644.253 201.776L638.605 193.37L630.517 198.804L635.068 205.577L631.084 208.254L626.533 201.481L617.17 207.772L623.702 217.493L619.758 220.144L610.254 206L639.538 186.324Z" fill="white"/>
<path d="M672.046 242.143L674.242 247.05L642.039 261.461L639.843 256.554L672.046 242.143Z" fill="white"/>
<path d="M689.984 307.289L686.329 292.321L690.805 291.228L696.465 314.403L662.628 304.731L666.591 320.958L662.022 322.074L655.997 297.407L689.984 307.289ZM696.919 301.494C696.684 300.531 696.797 299.647 697.26 298.842C697.761 298.061 698.477 297.556 699.41 297.328C700.374 297.093 701.242 297.21 702.016 297.68C702.828 298.174 703.352 298.902 703.587 299.866C703.823 300.829 703.69 301.702 703.189 302.483C702.727 303.288 702.014 303.808 701.05 304.043C700.117 304.271 699.245 304.138 698.433 303.645C697.652 303.144 697.147 302.427 696.919 301.494Z" fill="white"/>
<path d="M678.736 342.265L676.546 338.697L680.981 338.196L683.172 341.764L701.01 339.75L701.614 345.092L686.255 346.826L689.52 352.641L685.037 353.147L681.772 347.333L671.279 348.518L672.415 358.582L667.693 359.115L665.953 343.709L678.736 342.265Z" fill="white"/>
<path d="M668.448 394.621C668.575 391.424 669.428 388.495 671.006 385.836C672.616 383.209 674.827 381.151 677.64 379.662C680.453 378.172 683.682 377.499 687.328 377.644C691.005 377.789 694.17 378.716 696.825 380.422C699.511 382.13 701.537 384.356 702.901 387.1C704.264 389.876 704.883 392.863 704.756 396.06C704.629 399.258 703.777 402.17 702.2 404.798C700.621 407.458 698.425 409.532 695.612 411.022C692.831 412.513 689.602 413.186 685.924 413.04C682.279 412.895 679.113 411.969 676.427 410.262C673.741 408.554 671.7 406.311 670.305 403.534C668.94 400.79 668.322 397.819 668.448 394.621ZM673.292 394.813C673.205 397.019 673.637 399.054 674.588 400.917C675.571 402.782 677.032 404.281 678.973 405.415C680.944 406.582 683.321 407.22 686.103 407.33C688.917 407.442 691.336 406.993 693.362 405.985C695.418 405.01 696.994 403.631 698.089 401.849C699.183 400.099 699.775 398.105 699.864 395.867C699.952 393.628 699.521 391.578 698.57 389.714C697.619 387.851 696.158 386.352 694.185 385.217C692.244 384.083 689.867 383.461 687.053 383.349C684.272 383.239 681.852 383.688 679.794 384.695C677.769 385.703 676.192 387.098 675.065 388.879C673.968 390.693 673.377 392.671 673.292 394.813Z" fill="white"/>
<path d="M700.065 443.554L698.208 452.336C697.162 457.282 695.638 460.394 693.634 461.672C691.631 462.949 689.455 463.339 687.107 462.843C685.541 462.512 684.127 461.853 682.864 460.866C681.632 459.886 680.83 458.572 680.459 456.923C679.426 459.027 678.095 460.447 676.468 461.182C674.834 461.948 673.062 462.13 671.152 461.726C669.149 461.302 667.462 460.619 666.091 459.675C664.721 458.731 663.743 457.167 663.159 454.983C662.574 452.798 662.675 449.843 663.463 446.118L665.548 436.256L700.065 443.554ZM683.377 450.083C682.907 452.306 683.105 454 683.971 455.164C684.868 456.335 686.147 457.096 687.806 457.447C690.78 458.075 692.718 456.261 693.618 452.003L694.511 447.776L684.321 445.622L683.377 450.083ZM667.728 447.756C667.126 450.605 667.286 452.633 668.208 453.842C669.154 455.089 670.504 455.898 672.257 456.269C673.917 456.619 675.319 456.327 676.466 455.392C677.612 454.457 678.427 452.847 678.91 450.561L680.141 444.738L668.87 442.355L667.728 447.756Z" fill="white"/>
<path d="M687.939 493.094L682.76 507.657L678.328 506.08L681.722 496.538L672.541 493.273L669.807 500.961L665.284 499.353L668.018 491.664L657.391 487.885L653.466 498.919L648.989 497.327L654.699 481.272L687.939 493.094Z" fill="white"/>
<path d="M652.265 529.638L650.406 525.46L639.498 519.907L641.893 515.201L673.334 531.207L670.939 535.912L656.908 528.77L665.451 546.692L662.533 552.424L654.226 534.568L630.309 537.958L633.292 532.098L652.265 529.638Z" fill="white"/>
</g>
<defs>
<clipPath id="clip0">
<rect width="716" height="716" fill="white"/>
</clipPath>
</defs>
</svg>
