<svg width="716" height="716" viewBox="0 0 716 716" fill="none" xmlns="http://www.w3.org/2000/svg">
<path d="M401.871 475.253C381.454 479.35 350.011 503.61 350.011 503.61C350.011 503.61 381.29 510.728 406.422 505.932C431.553 501.135 471.686 473.449 471.686 473.449C471.686 473.449 422.288 471.156 401.871 475.253Z" fill="#159800" stroke="black" stroke-width="5"/>
<path d="M281.186 458.539C261.012 453.377 222.159 461.599 222.159 461.599C222.159 461.599 247.256 481.579 271.981 488.156C296.707 494.734 344.876 487.192 344.876 487.192C344.876 487.192 301.36 463.702 281.186 458.539Z" fill="#159800" stroke="black" stroke-width="5"/>
<path d="M360 347.501L355 347.501C355 347.501 340.5 433.001 345.499 496.501C350.499 560.001 362.5 574.787 364.5 574.501C366.5 574.215 356.5 562.501 352.5 496.501C348.5 430.502 360 347.501 360 347.501Z" fill="#159800" stroke="black" stroke-width="4"/>
<path d="M360.254 267.062C360.254 267.062 363.496 153.588 418.172 164.313C471.33 182.121 385.742 279.725 385.742 279.725C385.742 279.725 471.752 200.087 498.772 254.778C515.562 312.004 399.623 307.995 399.623 307.995C399.623 307.995 519.217 317.546 503.772 374.978C482.486 426.438 390.663 339.165 390.663 339.165C390.663 339.165 469.798 433.185 423.107 448.285C361.115 468.334 363.415 351.987 363.415 351.987C363.415 351.987 351.854 464.396 305.281 454.409C247.927 430.823 314.052 357.251 327.092 343.526C314.371 356.402 248.467 419.506 219.594 375.72C194.214 321.35 316.42 309.393 316.42 309.393C316.42 309.393 192.951 300.665 210.822 250.522C237.87 202.747 327.107 283.008 327.107 283.008C327.107 283.008 235.149 192.846 299.197 174.469C354.796 164.938 360.254 267.062 360.254 267.062Z" fill="white"/>
<path d="M360.254 267.062C360.254 267.062 363.496 153.588 418.172 164.313C471.33 182.121 385.742 279.725 385.742 279.725C385.742 279.725 471.752 200.087 498.772 254.778C515.562 312.004 399.623 307.995 399.623 307.995C399.623 307.995 519.217 317.546 503.772 374.978C482.486 426.438 390.663 339.165 390.663 339.165C390.663 339.165 469.798 433.185 423.107 448.285C361.115 468.334 363.415 351.987 363.415 351.987C363.415 351.987 351.854 464.396 305.281 454.409C241.926 428.356 329.24 341.309 329.24 341.309C329.24 341.309 251.627 424.298 219.594 375.72C194.214 321.35 316.42 309.393 316.42 309.393C316.42 309.393 192.951 300.665 210.822 250.522C237.87 202.747 327.107 283.008 327.107 283.008C327.107 283.008 235.149 192.846 299.197 174.469C354.796 164.938 360.254 267.062 360.254 267.062Z" stroke="black" stroke-width="10"/>
<path d="M318.85 326.787C322.302 343.728 344.535 358.43 364.77 351.757C382.78 345.817 403.31 331.273 398.078 305.591C392.845 279.909 374.215 267.312 349.29 275.781C316.512 286.917 315.399 309.846 318.85 326.787Z" fill="#F5BD0A" stroke="black" stroke-width="10"/>
<path d="M134.14 609.8C132.78 609.8 131.64 609.24 130.72 608.12C129.84 607 129.4 605.76 129.4 604.4C129.4 602.84 129.7 601.12 130.3 599.24C130.94 597.32 131.72 595.56 132.64 593.96C133.6 592.32 134.52 591.12 135.4 590.36H139.18C138.42 591.76 137.78 593.42 137.26 595.34C136.78 597.22 136.5 599.08 136.42 600.92C137.06 601.28 137.62 601.86 138.1 602.66C138.62 603.46 138.88 604.24 138.88 605C138.88 606.28 138.42 607.4 137.5 608.36C136.62 609.32 135.5 609.8 134.14 609.8ZM147.88 609.8C146.52 609.8 145.38 609.24 144.46 608.12C143.58 607 143.14 605.76 143.14 604.4C143.14 602.84 143.44 601.12 144.04 599.24C144.68 597.32 145.46 595.56 146.38 593.96C147.34 592.32 148.26 591.12 149.14 590.36H152.92C152.16 591.76 151.52 593.42 151 595.34C150.52 597.22 150.24 599.08 150.16 600.92C150.8 601.28 151.36 601.86 151.84 602.66C152.36 603.46 152.62 604.24 152.62 605C152.62 606.28 152.16 607.4 151.24 608.36C150.36 609.32 149.24 609.8 147.88 609.8ZM177.937 641.6C175.537 641.6 173.157 641.18 170.797 640.34C168.437 639.5 166.737 638.56 165.697 637.52L168.877 631.82C169.717 632.58 171.017 633.38 172.777 634.22C174.577 635.02 176.297 635.42 177.937 635.42C180.057 635.42 181.777 634.92 183.097 633.92C184.457 632.92 185.137 631.54 185.137 629.78C185.137 628.42 184.777 627.24 184.057 626.24C183.337 625.24 182.457 624.42 181.417 623.78C180.377 623.1 178.897 622.28 176.977 621.32C174.697 620.2 173.137 619.36 172.297 618.8C168.417 616.2 166.477 612.6 166.477 608C166.477 604.2 167.737 601.3 170.257 599.3C172.777 597.26 175.957 596.24 179.797 596.24C183.917 596.24 187.417 597.42 190.297 599.78L187.117 605.24C186.357 604.44 185.277 603.76 183.877 603.2C182.517 602.6 181.057 602.3 179.497 602.3C177.497 602.3 175.917 602.76 174.757 603.68C173.637 604.56 173.077 605.88 173.077 607.64C173.077 608.88 173.437 610 174.157 611C174.877 611.96 175.777 612.8 176.857 613.52C177.977 614.24 179.477 615.12 181.357 616.16C183.157 617.16 184.537 617.96 185.497 618.56C186.457 619.12 187.357 619.8 188.197 620.6C189.357 621.64 190.297 622.88 191.017 624.32C191.737 625.76 192.097 627.34 192.097 629.06C192.097 631.74 191.477 634.02 190.237 635.9C189.037 637.78 187.357 639.2 185.197 640.16C183.077 641.12 180.657 641.6 177.937 641.6ZM211.904 602.78H200.624V596.9H229.964V602.78H218.564V641H211.904V602.78ZM260.312 641.6C256.312 641.6 252.612 640.68 249.212 638.84C245.852 636.96 243.172 634.3 241.172 630.86C239.172 627.42 238.172 623.42 238.172 618.86C238.172 614.26 239.172 610.26 241.172 606.86C243.172 603.42 245.852 600.78 249.212 598.94C252.612 597.1 256.312 596.18 260.312 596.18C264.312 596.18 267.992 597.1 271.352 598.94C274.752 600.78 277.452 603.42 279.452 606.86C281.452 610.26 282.452 614.26 282.452 618.86C282.452 623.42 281.452 627.42 279.452 630.86C277.452 634.3 274.752 636.96 271.352 638.84C267.992 640.68 264.312 641.6 260.312 641.6ZM260.312 635.54C263.072 635.54 265.592 634.9 267.872 633.62C270.152 632.3 271.952 630.4 273.272 627.92C274.632 625.4 275.312 622.4 275.312 618.92C275.312 615.4 274.632 612.4 273.272 609.92C271.952 607.4 270.152 605.5 267.872 604.22C265.632 602.94 263.112 602.3 260.312 602.3C257.512 602.3 254.972 602.94 252.692 604.22C250.412 605.5 248.612 607.4 247.292 609.92C245.972 612.4 245.312 615.4 245.312 618.92C245.312 622.4 245.992 625.4 247.352 627.92C248.712 630.4 250.532 632.3 252.812 633.62C255.132 634.9 257.632 635.54 260.312 635.54ZM306.153 621.26L302.553 625.7V641H295.953V596.9H302.553V616.58L317.673 596.9H325.713L310.533 616.28L327.873 641H319.653L306.153 621.26ZM359.657 641L350.777 624.32C348.937 624.4 347.297 624.44 345.857 624.44H344.177V641H337.637V596.9H347.657C352.737 596.9 356.917 597.96 360.197 600.08C363.477 602.16 365.117 605.56 365.117 610.28C365.117 613.24 364.417 615.8 363.017 617.96C361.657 620.08 359.617 621.72 356.897 622.88L367.397 641H359.657ZM348.437 618.98C352.357 618.98 355.037 618.14 356.477 616.46C357.957 614.74 358.697 612.7 358.697 610.34C358.697 605.1 355.197 602.48 348.197 602.48H344.177V618.98H348.437ZM400.538 641.6C396.538 641.6 392.838 640.68 389.438 638.84C386.078 636.96 383.398 634.3 381.398 630.86C379.398 627.42 378.398 623.42 378.398 618.86C378.398 614.26 379.398 610.26 381.398 606.86C383.398 603.42 386.078 600.78 389.438 598.94C392.838 597.1 396.538 596.18 400.538 596.18C404.538 596.18 408.218 597.1 411.578 598.94C414.978 600.78 417.678 603.42 419.678 606.86C421.678 610.26 422.678 614.26 422.678 618.86C422.678 623.42 421.678 627.42 419.678 630.86C417.678 634.3 414.978 636.96 411.578 638.84C408.218 640.68 404.538 641.6 400.538 641.6ZM400.538 635.54C403.298 635.54 405.818 634.9 408.098 633.62C410.378 632.3 412.178 630.4 413.498 627.92C414.858 625.4 415.538 622.4 415.538 618.92C415.538 615.4 414.858 612.4 413.498 609.92C412.178 607.4 410.378 605.5 408.098 604.22C405.858 602.94 403.338 602.3 400.538 602.3C397.738 602.3 395.198 602.94 392.918 604.22C390.638 605.5 388.838 607.4 387.518 609.92C386.198 612.4 385.538 615.4 385.538 618.92C385.538 622.4 386.218 625.4 387.578 627.92C388.938 630.4 390.758 632.3 393.038 633.62C395.358 634.9 397.858 635.54 400.538 635.54ZM442.178 602.78H430.898V596.9H460.238V602.78H448.838V641H442.178V602.78ZM482.907 621.26L479.307 625.7V641H472.707V596.9H479.307V616.58L494.427 596.9H502.467L487.287 616.28L504.627 641H496.407L482.907 621.26ZM530.531 596.84L551.771 641H544.031L540.251 632.36H520.031L516.251 641H508.751L529.871 596.84H530.531ZM527.531 615.62L522.731 626.3H537.611L532.871 615.68L530.291 609.62H530.171L527.531 615.62ZM566.025 590.36C567.385 590.36 568.505 590.92 569.385 592.04C570.305 593.16 570.765 594.4 570.765 595.76C570.765 597.32 570.445 599.06 569.805 600.98C569.205 602.86 568.425 604.62 567.465 606.26C566.545 607.86 565.645 609.04 564.765 609.8H560.985C561.745 608.4 562.365 606.76 562.845 604.88C563.365 602.96 563.665 601.08 563.745 599.24C563.105 598.88 562.525 598.3 562.005 597.5C561.525 596.7 561.285 595.92 561.285 595.16C561.285 593.88 561.725 592.76 562.605 591.8C563.525 590.84 564.665 590.36 566.025 590.36ZM579.765 590.36C581.125 590.36 582.245 590.92 583.125 592.04C584.045 593.16 584.505 594.4 584.505 595.76C584.505 597.32 584.185 599.06 583.545 600.98C582.945 602.86 582.165 604.62 581.205 606.26C580.285 607.86 579.385 609.04 578.505 609.8H574.725C575.485 608.4 576.105 606.76 576.585 604.88C577.105 602.96 577.405 601.08 577.485 599.24C576.845 598.88 576.265 598.3 575.745 597.5C575.265 596.7 575.025 595.92 575.025 595.16C575.025 593.88 575.465 592.76 576.345 591.8C577.265 590.84 578.405 590.36 579.765 590.36Z" fill="black"/>
<path d="M95.2421 528.12L98.622 526.291L115.668 517.881L118.047 522.702L86.3654 538.334L86.0681 537.731L97.6405 508.898L94.1096 510.855L77.0207 519.287L74.6419 514.466L106.28 498.855L106.599 499.5L95.2421 528.12Z" fill="black"/>
<path d="M65.6134 491.884L63.8542 486.804L97.1919 475.259L98.9511 480.339L65.6134 491.884Z" fill="black"/>
<path d="M57.7458 467.319L54.1714 452.282L58.7479 451.194L61.0901 461.048L70.57 458.794L68.6829 450.856L73.3528 449.746L75.2399 457.684L86.2141 455.076L83.5056 443.681L88.1288 442.582L92.0694 459.16L57.7458 467.319Z" fill="black"/>
<path d="M50.255 431.601L49.3978 423.872C48.9146 419.515 49.5001 416.23 51.1544 414.018C52.7733 411.778 55.2048 410.478 58.449 410.119C62.2019 409.702 65.202 410.48 67.4491 412.453C69.6962 414.425 71.0596 417.574 71.5393 421.899L71.7457 423.76L84.7221 422.321L85.32 427.712L50.255 431.601ZM66.8004 422.28C66.49 419.481 65.6529 417.594 64.289 416.618C62.9252 415.643 61.3686 415.252 59.6193 415.446C57.7428 415.654 56.2762 416.364 55.2193 417.576C54.1624 418.788 53.7751 420.666 54.0573 423.21L54.3324 425.691L67.0226 424.284L66.8004 422.28Z" fill="black"/>
<path d="M82.9498 380.163C82.812 384.577 81.3847 387.734 78.6681 389.634C75.9515 391.534 72.0664 392.406 67.0129 392.248L46.8147 391.617L46.9825 386.244L67.2766 386.877C71.0188 386.994 73.723 386.518 75.3891 385.45C77.0233 384.38 77.8803 382.566 77.9602 380.008C78.0401 377.449 77.3134 375.601 75.7801 374.465C74.2159 373.295 71.5307 372.651 67.7245 372.532L47.4304 371.899L47.5997 366.477L67.7978 367.108C72.8194 367.265 76.6405 368.441 79.2613 370.636C81.8511 372.797 83.0806 375.973 82.9498 380.163Z" fill="black"/>
<path d="M49.7765 343.478L51.4126 334.652C52.3341 329.681 53.7803 326.532 55.7512 325.205C57.7221 323.878 59.8875 323.433 62.2473 323.871C63.8205 324.162 65.2508 324.785 66.5384 325.74C67.7945 326.689 68.6287 327.983 69.0409 329.621C70.0214 327.492 71.3158 326.04 72.9241 325.264C74.5383 324.457 76.3051 324.231 78.2244 324.587C80.2381 324.96 81.9417 325.601 83.3353 326.511C84.7289 327.42 85.7454 328.959 86.3848 331.128C87.0242 333.297 86.9969 336.253 86.3028 339.997L84.4655 349.909L49.7765 343.478ZM66.2952 336.533C66.7093 334.299 66.4689 332.611 65.5742 331.468C64.6479 330.32 63.351 329.592 61.6834 329.283C58.6943 328.728 56.8031 330.591 56.0099 334.87L55.2225 339.118L65.464 341.016L66.2952 336.533ZM81.9976 338.467C82.5284 335.604 82.3178 333.58 81.3659 332.394C80.3884 331.172 79.0187 330.397 77.2567 330.07C75.5891 329.761 74.1941 330.088 73.0716 331.052C71.9492 332.016 71.1751 333.646 70.7493 335.943L69.6644 341.795L80.9915 343.895L81.9976 338.467Z" fill="black"/>
<path d="M59.6169 298.723L61.2843 293.562L90.2884 302.931L93.4018 293.294L97.9694 294.769L93.1886 309.568L59.6169 298.723Z" fill="black"/>
<path d="M70.9757 266.878L73.1102 261.943L105.49 275.951L103.356 280.885L70.9757 266.878Z" fill="black"/>
<path d="M120.77 246.78C118.935 249.933 116.637 252.26 113.874 253.763C111.128 255.237 108.225 255.899 105.166 255.748C102.079 255.581 99.1113 254.668 96.2625 253.01C93.2479 251.256 90.9295 249.037 89.3075 246.352C87.7015 243.641 86.9268 240.709 86.9835 237.558C87.0125 234.391 87.9042 231.3 89.6586 228.285C90.4473 226.93 91.3317 225.76 92.312 224.776C93.2806 223.747 94.1839 222.959 95.0218 222.409C95.832 221.844 96.434 221.51 96.8278 221.406L99.7934 225.853C97.3181 226.671 95.2917 228.435 93.7144 231.145C92.6038 233.054 92.068 235.056 92.107 237.152C92.146 239.248 92.7792 241.246 94.0066 243.145C95.2339 245.044 96.9954 246.661 99.291 247.997C101.393 249.22 103.527 249.944 105.692 250.167C107.874 250.363 109.905 249.99 111.786 249.048C113.667 248.107 115.219 246.585 116.442 244.483C117.858 242.049 118.535 239.296 118.472 236.223L123.21 237.148C123.409 238.078 123.296 239.512 122.872 241.45C122.437 243.343 121.736 245.12 120.77 246.78Z" fill="black"/>
<path d="M119.659 194.072L110.056 206.121L106.453 203.249L121.321 184.593L134.373 217.275L144.783 204.212L148.462 207.144L132.637 227.001L119.659 194.072Z" fill="black"/>
<path d="M147.222 174.864L149.933 177.586L162.832 191.548L158.883 195.196L134.91 169.247L135.404 168.791L166.334 171.714L163.457 168.883L150.526 154.886L154.475 151.237L178.415 177.151L177.887 177.64L147.222 174.864Z" fill="black"/>
<path d="M173.435 136.131L186.155 127.351L188.827 131.222L180.492 136.976L186.028 144.995L192.743 140.359L195.47 144.31L188.754 148.945L195.162 158.228L204.801 151.575L207.5 155.486L193.477 165.166L173.435 136.131Z" fill="black"/>
<path d="M223.511 106.013L230.641 102.91C234.661 101.161 237.972 100.75 240.574 101.677C243.192 102.561 245.153 104.5 246.455 107.493C247.962 110.956 248.105 114.052 246.885 116.781C245.664 119.511 243.059 121.744 239.068 123.48L237.352 124.227L242.561 136.199L237.587 138.363L223.511 106.013ZM237.304 119.065C239.886 117.942 241.442 116.584 241.971 114.993C242.5 113.402 242.414 111.799 241.711 110.185C240.958 108.454 239.846 107.263 238.376 106.611C236.906 105.96 234.998 106.145 232.65 107.166L230.361 108.162L235.456 119.87L237.304 119.065Z" fill="black"/>
<path d="M287.457 120.118L277.019 109.183C275.619 109.641 274.364 110.026 273.255 110.336L271.961 110.698L275.532 123.456L270.493 124.866L260.984 90.892L268.703 88.7313C272.617 87.6359 276.065 87.5512 279.049 88.4771C282.025 89.3723 284.021 91.638 285.039 95.2742C285.678 97.5546 285.69 99.6777 285.078 101.644C284.487 103.57 283.269 105.273 281.424 106.754L293.42 118.449L287.457 120.118ZM274.065 105.573C277.085 104.728 278.969 103.503 279.716 101.898C280.485 100.254 280.615 98.5229 280.106 96.7048C278.976 92.6679 275.715 91.4042 270.322 92.9137L267.225 93.7805L270.783 106.492L274.065 105.573Z" fill="black"/>
<path d="M319.58 82.7502L304.304 84.7667L303.701 80.1983L327.352 77.0762L314.079 109.67L330.64 107.483L331.255 112.147L306.082 115.47L319.58 82.7502Z" fill="black"/>
<path d="M346.852 75.8143L362.308 75.7499L362.328 80.4539L352.2 80.4961L352.24 90.24L360.4 90.206L360.42 95.006L352.26 95.04L352.307 106.32L364.019 106.271L364.039 111.023L346.999 111.094L346.852 75.8143Z" fill="black"/>
<path d="M383.949 76.488L392.367 77.635C399.406 78.5941 404.094 80.9283 406.43 84.6377C408.799 88.3514 409.67 92.5071 409.043 97.1046C408.607 100.307 407.601 103.19 406.024 105.752C404.452 108.283 402.154 110.215 399.131 111.547C396.139 112.883 392.392 113.244 387.889 112.631L379.186 111.445L383.949 76.488ZM389.102 108C393.477 108.596 396.817 107.792 399.119 105.586C401.458 103.354 402.885 100.351 403.399 96.5777C403.9 92.8997 403.309 89.7673 401.627 87.1805C399.945 84.5937 396.932 83.0044 392.588 82.4126L388.641 81.8747L385.154 107.462L389.102 108Z" fill="black"/>
<path d="M430.962 121.48C429.118 120.947 427.382 120.095 425.755 118.926C424.127 117.756 423.03 116.656 422.461 115.626L426.171 111.951C426.648 112.722 427.469 113.625 428.635 114.662C429.841 115.676 431.074 116.366 432.335 116.73C433.964 117.201 435.397 117.198 436.634 116.723C437.901 116.256 438.73 115.347 439.121 113.994C439.423 112.949 439.408 111.962 439.077 111.033C438.745 110.105 438.251 109.279 437.594 108.556C436.946 107.803 435.99 106.844 434.728 105.68C433.224 104.313 432.212 103.321 431.69 102.704C429.286 99.8441 428.594 96.6465 429.615 93.1111C430.459 90.1905 432.071 88.2414 434.452 87.2639C436.842 86.2555 439.513 86.1777 442.464 87.0303C445.63 87.9452 448.058 89.6292 449.748 92.0826L446.091 95.5728C445.685 94.7892 445.006 94.0268 444.054 93.2855C443.142 92.5224 442.087 91.9676 440.888 91.6213C439.351 91.1772 438.034 91.1799 436.938 91.6294C435.882 92.057 435.159 92.9472 434.768 94.2999C434.493 95.2529 434.521 96.1936 434.852 97.1221C435.192 98.0198 435.697 98.8652 436.367 99.6584C437.068 100.46 438.026 101.47 439.24 102.687C440.401 103.855 441.284 104.776 441.889 105.45C442.502 106.094 443.043 106.816 443.511 107.618C444.172 108.675 444.619 109.836 444.852 111.103C445.086 112.37 445.012 113.664 444.63 114.986C444.035 117.046 443.052 118.66 441.681 119.83C440.342 121.008 438.735 121.727 436.862 121.985C435.019 122.252 433.053 122.084 430.962 121.48Z" fill="black"/>
<path d="M482.679 107.097L468.577 100.89L470.433 96.6726L492.268 106.282L464.004 127.249L479.293 133.978L477.398 138.283L454.157 128.055L482.679 107.097Z" fill="black"/>
<path d="M506.763 136.327L502.445 137.832L496.004 148.24L491.514 145.462L510.08 115.462L514.57 118.24L506.285 131.628L524.855 124.606L530.325 127.99L511.84 134.783L513.229 158.9L507.637 155.439L506.763 136.327Z" fill="black"/>
<path d="M536.308 177.541C533.9 175.434 532.156 172.932 531.079 170.033C530.046 167.131 529.833 164.118 530.441 160.993C531.049 157.868 532.554 154.933 534.956 152.187C537.379 149.418 540.088 147.536 543.083 146.542C546.1 145.525 549.104 145.347 552.096 146.009C555.112 146.692 557.825 148.087 560.233 150.194C562.642 152.301 564.373 154.793 565.427 157.671C566.505 160.57 566.74 163.582 566.132 166.706C565.545 169.807 564.04 172.742 561.617 175.512C559.215 178.258 556.506 180.139 553.49 181.157C550.473 182.175 547.447 182.354 544.409 181.695C541.417 181.033 538.716 179.648 536.308 177.541ZM539.5 173.893C541.162 175.347 543.016 176.289 545.063 176.719C547.132 177.125 549.216 176.929 551.317 176.131C553.464 175.331 555.453 173.882 557.286 171.787C559.141 169.668 560.311 167.503 560.799 165.294C561.332 163.081 561.249 160.989 560.55 159.017C559.876 157.066 558.695 155.354 557.01 153.879C555.324 152.404 553.457 151.451 551.41 151.021C549.363 150.591 547.278 150.786 545.156 151.608C543.055 152.406 541.078 153.865 539.223 155.984C537.39 158.08 536.219 160.244 535.711 162.478C535.223 164.688 535.318 166.79 535.996 168.786C536.718 170.779 537.887 172.481 539.5 173.893Z" fill="black"/>
<path d="M588.926 178.941L592.437 183.075L569.206 202.807L575.763 210.526L572.104 213.634L562.036 201.78L588.926 178.941Z" fill="black"/>
<path d="M610.073 205.225L618.693 218.054L614.788 220.677L609.14 212.271L601.052 217.705L605.603 224.478L601.619 227.155L597.068 220.382L587.705 226.673L594.237 236.394L590.293 239.045L580.789 224.901L610.073 205.225Z" fill="black"/>
<path d="M639.326 255.576L641.522 260.483L609.32 274.894L607.124 269.987L639.326 255.576Z" fill="black"/>
<path d="M655.273 315.635L651.618 300.667L656.094 299.573L661.754 322.748L627.917 313.076L631.88 329.303L627.311 330.419L621.286 305.752L655.273 315.635ZM662.208 309.84C661.973 308.876 662.087 307.992 662.549 307.187C663.05 306.406 663.767 305.902 664.699 305.674C665.663 305.439 666.531 305.556 667.305 306.026C668.117 306.519 668.641 307.248 668.876 308.211C669.112 309.175 668.979 310.047 668.478 310.829C668.016 311.633 667.303 312.153 666.339 312.389C665.406 312.616 664.534 312.484 663.722 311.99C662.941 311.489 662.436 310.772 662.208 309.84Z" fill="black"/>
<path d="M643.014 346.04L640.824 342.471L645.26 341.97L647.45 345.539L665.289 343.524L665.892 348.866L650.534 350.601L653.799 356.415L649.315 356.922L646.05 351.107L635.557 352.292L636.693 362.356L631.972 362.89L630.232 347.484L643.014 346.04Z" fill="black"/>
<path d="M632.285 394.193C632.412 390.996 633.265 388.067 634.843 385.408C636.452 382.782 638.664 380.724 641.477 379.234C644.29 377.744 647.519 377.071 651.164 377.216C654.842 377.362 658.007 378.288 660.662 379.994C663.348 381.702 665.374 383.928 666.738 386.672C668.101 389.448 668.719 392.435 668.593 395.633C668.466 398.83 667.614 401.743 666.037 404.37C664.458 407.03 662.262 409.105 659.449 410.594C656.668 412.085 653.438 412.758 649.761 412.612C646.116 412.468 642.95 411.542 640.264 409.834C637.577 408.126 635.537 405.883 634.142 403.106C632.777 400.362 632.158 397.391 632.285 394.193ZM637.129 394.385C637.042 396.592 637.474 398.626 638.425 400.49C639.408 402.354 640.869 403.853 642.81 404.987C644.781 406.154 647.158 406.792 649.94 406.903C652.753 407.014 655.173 406.566 657.199 405.557C659.255 404.582 660.831 403.203 661.926 401.421C663.02 399.671 663.612 397.677 663.701 395.439C663.789 393.201 663.358 391.15 662.407 389.287C661.456 387.424 659.994 385.925 658.022 384.79C656.081 383.656 653.704 383.033 650.89 382.922C648.108 382.811 645.689 383.26 643.631 384.267C641.606 385.276 640.029 386.67 638.902 388.451C637.805 390.265 637.214 392.243 637.129 394.385Z" fill="black"/>
<path d="M664.329 436.782L662.472 445.563C661.426 450.51 659.902 453.622 657.898 454.899C655.895 456.176 653.719 456.567 651.371 456.07C649.805 455.739 648.391 455.08 647.128 454.094C645.896 453.114 645.094 451.799 644.723 450.151C643.69 452.255 642.359 453.674 640.732 454.41C639.098 455.176 637.326 455.358 635.417 454.954C633.413 454.53 631.726 453.846 630.356 452.902C628.985 451.958 628.008 450.394 627.423 448.21C626.838 446.026 626.939 443.071 627.727 439.345L629.812 429.483L664.329 436.782ZM647.642 443.311C647.172 445.534 647.37 447.227 648.235 448.392C649.133 449.562 650.411 450.323 652.07 450.674C655.044 451.303 656.982 449.489 657.882 445.231L658.776 441.004L648.585 438.849L647.642 443.311ZM631.993 440.983C631.39 443.832 631.55 445.861 632.472 447.07C633.418 448.317 634.768 449.126 636.522 449.496C638.181 449.847 639.584 449.555 640.73 448.62C641.876 447.685 642.691 446.074 643.174 443.789L644.405 437.966L633.134 435.583L631.993 440.983Z" fill="black"/>
<path d="M653.373 481.381L648.193 495.944L643.761 494.368L647.155 484.825L637.975 481.56L635.24 489.248L630.718 487.64L633.452 479.952L622.824 476.172L618.9 487.207L614.422 485.614L620.132 469.559L653.373 481.381Z" fill="black"/>
<path d="M619.129 514.09L617.27 509.912L606.362 504.359L608.757 499.654L640.198 515.659L637.803 520.364L623.772 513.222L632.315 531.144L629.397 536.876L621.09 519.02L597.173 522.411L600.156 516.55L619.129 514.09Z" fill="black"/>
</svg>
